<svg xmlns="http://www.w3.org/2000/svg" width="24" height="24" viewBox="0 0 24 24" fill="none" stroke="currentColor" stroke-width="1.5" stroke-linecap="round" stroke-linejoin="round"><path d="M5.2 10.3c-1 1.8-1 4.7-.1 7.3.4 1.2.9 2.2 1.5 2.9h1.5c.6-.9.9-2.3 1-3.8.1-2.6-.4-5.2-1.4-6.8-.8-.4-1.8-.3-2.5.4z"/><path d="M5.3 12.1c.9.6 2.1.6 3-.2"/><path d="M18.8 10.3c1 1.8 1 4.7.1 7.3-.4 1.2-.9 2.2-1.5 2.9h-1.5c-.6-.9-.9-2.3-1-3.8-.1-2.6.4-5.2 1.4-6.8.8-.4 1.8-.3 2.5.4z"/><path d="M18.7 12.1c-.9.6-2.1.6-3-.2"/><path d="M6.6 10 11.2 4M17.4 10 12.8 4"/><path d="M12 3.8c-1.5-1.6-3.6-1.8-3.4-.5.2 1.1 2 1.2 3.4.5zM12 3.8c1.5-1.6 3.6-1.8 3.4-.5-.2 1.1-2 1.2-3.4.5z"/><path d="M11.2 4.3 10 6.6M12.8 4.3 14 6.6"/></svg>
